<svg xmlns="http://www.w3.org/2000/svg" fill="none" width="1920" height="35" viewBox="0 0 1920 35"><path d="M0 0h1920v35H0z" fill="#1E1E1E"/><g clip-path="url(#a)"><path d="M0 0h1920v35H0z" fill="#37EBF3"/><path d="M-1 15h1921v22H-1z" fill="#272932"/><path d="m205 22.5-7-7.5h35.5l-8.5 7.5h-20Z" fill="#37EBF3"/><path d="m244 6-10.5 9H251l-7-9Zm62 1h2v6h-2zm4 0h2v6h-2zm8 0h2v6h-2zm8 0h4v6h-4zm664 0h2v6h-2zm4 0h2v6h-2zm8 0h2v6h-2zm8 0h4v6h-4z" fill="#272932"/><path d="m558 22 3-4.5 3 4.5h-6Z" fill="#37EBF3"/><path d="m565.008 14-3.988 3.698-4.02-3.665 8.008-.033Z" fill="#37EBF3"/><path d="m1253.01 11-4.01 4-4-3.967 8.01-.033Zm113.01 0 4 4 4-3.967-8-.033Z" fill="#272932"/><path d="m703 26-12-11h49l-4 6h-30l-3 5Z" fill="#37EBF3"/><path d="M710 17h2v2h-2zm21-3h2v5h-2zm-4 0h2v5h-2zm21-9-8 10h58l-8-10h-42Z" fill="#272932"/><path d="m1659 26 12-11h-49l4 6h30l3 5Z" fill="#37EBF3"/><path d="M1652 17h-2v2h2zm-21-3h-2v5h2zm4 0h-2v5h2zm-21-9 8 10h-58l8-10h42Z" fill="#272932"/><path d="m1213 23.5-8-8.5h16l-8 8.5Zm193.02 0 8-8.5h-16l8 8.5Z" fill="#37EBF3"/><path d="m1229 6 8 9h-16l8-9Zm161.02 0-8 9h16l-8-9Z" fill="#272932"/></g><defs><clipPath id="a"><path d="M0 0h1920v35H0z" fill="#fff"/></clipPath></defs></svg>