<svg width="1921" height="36" viewBox="0 0 1921 36" fill="none" xmlns="http://www.w3.org/2000/svg">
<g clip-path="url(#clip0_27_369)">
<rect width="1920" height="35" transform="translate(1920.18 35.8376) rotate(-180)" fill="#37EBF3"/>
<rect x="1921.18" y="20.8376" width="1921" height="22" transform="rotate(-180 1921.18 20.8376)" fill="#272932"/>
<path d="M1715.18 13.3376L1722.18 20.8376L1686.68 20.8376L1695.18 13.3376L1715.18 13.3376Z" fill="#37EBF3"/>
<path d="M1676.18 29.8376L1686.68 20.8376H1669.18L1676.18 29.8376Z" fill="#272932"/>
<rect x="1614.18" y="28.8376" width="2" height="6" transform="rotate(-180 1614.18 28.8376)" fill="#272932"/>
<rect x="1610.18" y="28.8376" width="2" height="6" transform="rotate(-180 1610.18 28.8376)" fill="#272932"/>
<rect x="1602.18" y="28.8376" width="2" height="6" transform="rotate(-180 1602.18 28.8376)" fill="#272932"/>
<rect x="1594.18" y="28.8376" width="4" height="6" transform="rotate(-180 1594.18 28.8376)" fill="#272932"/>
<rect x="930.184" y="28.8376" width="2" height="6" transform="rotate(-180 930.184 28.8376)" fill="#272932"/>
<rect x="926.184" y="28.8376" width="2" height="6" transform="rotate(-180 926.184 28.8376)" fill="#272932"/>
<rect x="918.184" y="28.8376" width="2" height="6" transform="rotate(-180 918.184 28.8376)" fill="#272932"/>
<rect x="910.184" y="28.8376" width="4" height="6" transform="rotate(-180 910.184 28.8376)" fill="#272932"/>
<path d="M1362.18 13.8376L1359.18 18.3376L1356.18 13.8376H1362.18Z" fill="#37EBF3"/>
<path d="M1355.18 21.8377L1359.16 18.1397L1363.18 21.8042L1355.18 21.8377Z" fill="#37EBF3"/>
<path d="M667.176 24.8377L671.184 20.8376L675.183 24.8042L667.176 24.8377Z" fill="#272932"/>
<path d="M554.167 24.8377L550.159 20.8376L546.159 24.8042L554.167 24.8377Z" fill="#272932"/>
<path d="M1217.18 9.83765L1229.18 20.8376L1180.18 20.8376L1184.18 14.8376L1214.18 14.8376L1217.18 9.83765Z" fill="#37EBF3"/>
<rect x="1210.18" y="18.8376" width="2" height="2" transform="rotate(-180 1210.18 18.8376)" fill="#272932"/>
<rect x="1189.18" y="21.8376" width="2" height="5" transform="rotate(-180 1189.18 21.8376)" fill="#272932"/>
<rect x="1193.18" y="21.8376" width="2" height="5" transform="rotate(-180 1193.18 21.8376)" fill="#272932"/>
<path d="M1172.18 30.8376L1180.18 20.8376L1122.18 20.8376L1130.18 30.8376L1172.18 30.8376Z" fill="#272932"/>
<path d="M261.184 9.83765L249.184 20.8376L298.184 20.8376L294.184 14.8376L264.184 14.8376L261.184 9.83765Z" fill="#37EBF3"/>
<rect width="2" height="2" transform="matrix(1 0 0 -1 268.184 18.8376)" fill="#272932"/>
<rect width="2" height="5" transform="matrix(1 0 0 -1 289.184 21.8376)" fill="#272932"/>
<rect width="2" height="5" transform="matrix(1 0 0 -1 285.184 21.8376)" fill="#272932"/>
<path d="M306.184 30.8376L298.184 20.8376L356.184 20.8376L348.184 30.8376L306.184 30.8376Z" fill="#272932"/>
<path d="M707.184 12.3376L715.184 20.8376H699.184L707.184 12.3376Z" fill="#37EBF3"/>
<path d="M514.159 12.3376L506.159 20.8376H522.159L514.159 12.3376Z" fill="#37EBF3"/>
<path d="M691.184 29.8376L683.184 20.8376H699.184L691.184 29.8376Z" fill="#272932"/>
<path d="M530.159 29.8376L538.159 20.8376H522.159L530.159 29.8376Z" fill="#272932"/>
</g>
<defs>
<clipPath id="clip0_27_369">
<rect width="1920" height="35" fill="white" transform="translate(1920.18 35.8376) rotate(-180)"/>
</clipPath>
</defs>
</svg>
