<svg width="1920" height="30" viewBox="0 0 1920 30" fill="none" xmlns="http://www.w3.org/2000/svg">
<g clip-path="url(#clip0_27_373)">
<rect width="1920" height="30" fill="#37EBF3"/>
<rect x="-1" y="15" width="1921" height="15" fill="#272932"/>
<path d="M205 22.5L198 15H233.5L225 22.5H205Z" fill="#37EBF3"/>
<path d="M244 6L233.5 15H251L244 6Z" fill="#272932"/>
<rect x="306" y="7" width="2" height="6" fill="#272932"/>
<rect x="310" y="7" width="2" height="6" fill="#272932"/>
<rect x="318" y="7" width="2" height="6" fill="#272932"/>
<rect x="326" y="7" width="4" height="6" fill="#272932"/>
<rect x="990" y="7" width="2" height="6" fill="#272932"/>
<rect x="994" y="7" width="2" height="6" fill="#272932"/>
<rect x="1002" y="7" width="2" height="6" fill="#272932"/>
<rect x="1010" y="7" width="4" height="6" fill="#272932"/>
<path d="M558 22L561 17.5L564 22H558Z" fill="#37EBF3"/>
<path d="M565.008 14L561.02 17.6979L557 14.0334L565.008 14Z" fill="#37EBF3"/>
<path d="M1253.01 11.0002L1249 15.0002L1245 11.0337L1253.01 11.0002Z" fill="#272932"/>
<path d="M1366.02 11.0002L1370.02 15.0002L1374.02 11.0337L1366.02 11.0002Z" fill="#272932"/>
<path d="M703 26L691 15H740L736 21H706L703 26Z" fill="#37EBF3"/>
<rect x="710" y="17" width="2" height="2" fill="#272932"/>
<rect x="731" y="14" width="2" height="5" fill="#272932"/>
<rect x="727" y="14" width="2" height="5" fill="#272932"/>
<path d="M748 5L740 15H798L790 5H748Z" fill="#272932"/>
<path d="M1659 26L1671 15H1622L1626 21H1656L1659 26Z" fill="#37EBF3"/>
<rect width="2" height="2" transform="matrix(-1 0 0 1 1652 17)" fill="#272932"/>
<rect width="2" height="5" transform="matrix(-1 0 0 1 1631 14)" fill="#272932"/>
<rect width="2" height="5" transform="matrix(-1 0 0 1 1635 14)" fill="#272932"/>
<path d="M1614 5L1622 15H1564L1572 5H1614Z" fill="#272932"/>
<path d="M1213 23.5L1205 15H1221L1213 23.5Z" fill="#37EBF3"/>
<path d="M1406.02 23.5L1414.02 15H1398.02L1406.02 23.5Z" fill="#37EBF3"/>
<path d="M1229 6L1237 15H1221L1229 6Z" fill="#272932"/>
<path d="M1390.02 6L1382.02 15H1398.02L1390.02 6Z" fill="#272932"/>
</g>
<defs>
<clipPath id="clip0_27_373">
<rect width="1920" height="30" fill="white"/>
</clipPath>
</defs>
</svg>
