<svg xmlns="http://www.w3.org/2000/svg" fill="none" width="1921" height="36" viewBox="0 0 1921 36"><g clip-path="url(#a)"><path d="M1920.18 35.838H.18v-35h1920z" fill="#37EBF3"/><path d="M1921.18 20.838H.18v-22h1921z" fill="#272932"/><path d="m1715.18 13.338 7 7.5h-35.5l8.5-7.5h20Z" fill="#37EBF3"/><path d="m1676.18 29.838 10.5-9h-17.5l7 9Zm-62-1h-2v-6h2zm-4 0h-2v-6h2zm-8 0h-2v-6h2zm-8 0h-4v-6h4zm-663.996 0h-2v-6h2zm-4 0h-2v-6h2zm-8 0h-2v-6h2zm-8 0h-4v-6h4z" fill="#272932"/><path d="m1362.18 13.838-3 4.5-3-4.5h6Z" fill="#37EBF3"/><path d="m1355.18 21.838 3.98-3.698 4.02 3.664-8 .034Z" fill="#37EBF3"/><path d="m667.176 24.838 4.008-4 3.999 3.966-8.007.034Zm-113.009 0-4.008-4-4 3.966 8.008.034Z" fill="#272932"/><path d="m1217.18 9.838 12 11h-49l4-6h30l3-5Z" fill="#37EBF3"/><path d="M1210.18 18.838h-2v-2h2zm-21 3h-2v-5h2zm4 0h-2v-5h2zm-21 9 8-10h-58l8 10h42Z" fill="#272932"/><path d="m261.184 9.838-12 11h49l-4-6h-30l-3-5Z" fill="#37EBF3"/><path d="M268.184 18.838h2v-2h-2zm21 3h2v-5h-2zm-4 0h2v-5h-2zm21 9-8-10h58l-8 10h-42Z" fill="#272932"/><path d="m707.184 12.338 8 8.5h-16l8-8.5Zm-193.025 0-8 8.5h16l-8-8.5Z" fill="#37EBF3"/><path d="m691.184 29.838-8-9h16l-8 9Zm-161.025 0 8-9h-16l8 9Z" fill="#272932"/></g><defs><clipPath id="a"><path d="M0 0h1920v35H0z" fill="#fff" transform="rotate(-180 960.09 17.919)"/></clipPath></defs></svg>