<svg width="1920" height="30" viewBox="0 0 1920 30" fill="none" xmlns="http://www.w3.org/2000/svg">
<g clip-path="url(#clip0_27_872)">
<rect width="1920" height="30" transform="matrix(1 0 0 -1 0 30)" fill="#37EBF3"/>
<rect width="1921" height="15" transform="matrix(1 0 0 -1 -1 15)" fill="#272932"/>
<path d="M205 7.5L198 15H233.5L225 7.5H205Z" fill="#37EBF3"/>
<path d="M244 24L233.5 15H251L244 24Z" fill="#272932"/>
<rect width="2" height="6" transform="matrix(1 0 0 -1 306 23)" fill="#272932"/>
<rect width="2" height="6" transform="matrix(1 0 0 -1 310 23)" fill="#272932"/>
<rect width="2" height="6" transform="matrix(1 0 0 -1 318 23)" fill="#272932"/>
<rect width="4" height="6" transform="matrix(1 0 0 -1 326 23)" fill="#272932"/>
<rect width="2" height="6" transform="matrix(1 0 0 -1 990 23)" fill="#272932"/>
<rect width="2" height="6" transform="matrix(1 0 0 -1 994 23)" fill="#272932"/>
<rect width="2" height="6" transform="matrix(1 0 0 -1 1002 23)" fill="#272932"/>
<rect width="4" height="6" transform="matrix(1 0 0 -1 1010 23)" fill="#272932"/>
<path d="M558 8L561 12.5L564 8H558Z" fill="#37EBF3"/>
<path d="M565.008 16L561.02 12.3021L557 15.9666L565.008 16Z" fill="#37EBF3"/>
<path d="M1253.01 19.0001L1249 15L1245 18.9666L1253.01 19.0001Z" fill="#272932"/>
<path d="M1366.02 19.0001L1370.02 15L1374.02 18.9666L1366.02 19.0001Z" fill="#272932"/>
<path d="M703 4L691 15H740L736 9H706L703 4Z" fill="#37EBF3"/>
<rect width="2" height="2" transform="matrix(1 0 0 -1 710 13)" fill="#272932"/>
<rect width="2" height="5" transform="matrix(1 0 0 -1 731 16)" fill="#272932"/>
<rect width="2" height="5" transform="matrix(1 0 0 -1 727 16)" fill="#272932"/>
<path d="M748 25L740 15H798L790 25H748Z" fill="#272932"/>
<path d="M1659 4L1671 15H1622L1626 9H1656L1659 4Z" fill="#37EBF3"/>
<rect x="1652" y="13" width="2" height="2" transform="rotate(-180 1652 13)" fill="#272932"/>
<rect x="1631" y="16" width="2" height="5" transform="rotate(-180 1631 16)" fill="#272932"/>
<rect x="1635" y="16" width="2" height="5" transform="rotate(-180 1635 16)" fill="#272932"/>
<path d="M1614 25L1622 15H1564L1572 25H1614Z" fill="#272932"/>
<path d="M1213 6.5L1205 15H1221L1213 6.5Z" fill="#37EBF3"/>
<path d="M1406.02 6.5L1414.02 15H1398.02L1406.02 6.5Z" fill="#37EBF3"/>
<path d="M1229 24L1237 15H1221L1229 24Z" fill="#272932"/>
<path d="M1390.02 24L1382.02 15H1398.02L1390.02 24Z" fill="#272932"/>
</g>
<defs>
<clipPath id="clip0_27_872">
<rect width="1920" height="30" fill="white" transform="matrix(1 0 0 -1 0 30)"/>
</clipPath>
</defs>
</svg>
