<svg xmlns="http://www.w3.org/2000/svg" fill="none" width="26" height="26" viewBox="0 0 26 26"><path d="M13 0C5.817 0 0 5.969 0 13.33c0 5.89 3.724 10.886 8.889 12.647.65.125.888-.287.888-.641 0-.317-.01-1.155-.016-2.266-3.616.804-4.379-1.788-4.379-1.788-.591-1.54-1.446-1.95-1.446-1.95-1.178-.826.09-.81.09-.81 1.306.093 1.992 1.373 1.992 1.373 1.16 2.038 3.043 1.45 3.786 1.11.117-.863.452-1.45.823-1.784-2.887-.333-5.921-1.48-5.921-6.587 0-1.456.504-2.644 1.338-3.577-.146-.337-.585-1.692.114-3.528 0 0 1.088-.358 3.575 1.366a12.173 12.173 0 0 1 3.25-.45 12.17 12.17 0 0 1 3.25.45c2.47-1.724 3.558-1.366 3.558-1.366.7 1.836.26 3.191.13 3.528.83.933 1.333 2.121 1.333 3.577 0 5.12-3.04 6.248-5.931 6.576.455.4.877 1.217.877 2.466 0 1.784-.016 3.217-.016 3.65 0 .35.227.767.894.633C22.278 24.211 26 19.212 26 13.33 26 5.97 20.18 0 13 0Z" fill="#000"/></svg>