<svg xmlns="http://www.w3.org/2000/svg" fill="none" width="26" height="26" viewBox="0 0 26 26"><path d="M13 0C9.468 0 9.027.016 7.64.078 6.257.143 5.315.361 4.486.683a6.366 6.366 0 0 0-2.303 1.499 6.343 6.343 0 0 0-1.5 2.303c-.321.829-.54 1.771-.604 3.156C.012 9.027-.001 9.468-.001 13s.016 3.973.078 5.36c.065 1.383.283 2.326.605 3.155a6.376 6.376 0 0 0 1.499 2.303 6.358 6.358 0 0 0 2.303 1.5c.83.32 1.772.54 3.156.604C9.027 25.987 9.468 26 13 26s3.973-.016 5.36-.078c1.383-.065 2.326-.284 3.155-.605a6.39 6.39 0 0 0 2.303-1.499 6.35 6.35 0 0 0 1.5-2.303c.32-.829.54-1.772.604-3.156.065-1.386.078-1.827.078-5.36 0-3.533-.016-3.974-.078-5.36-.065-1.384-.284-2.328-.605-3.156a6.382 6.382 0 0 0-1.499-2.303 6.335 6.335 0 0 0-2.303-1.5c-.829-.32-1.772-.54-3.156-.604C16.973.013 16.532 0 13 0Zm0 2.34c3.47 0 3.884.017 5.254.077 1.268.06 1.956.27 2.413.45a4.03 4.03 0 0 1 1.497.97c.454.455.735.887.97 1.496.178.457.39 1.145.448 2.413.062 1.371.076 1.783.076 5.254 0 3.471-.016 3.884-.08 5.254-.066 1.268-.278 1.956-.456 2.413a4.128 4.128 0 0 1-.974 1.497 4.05 4.05 0 0 1-1.495.97c-.455.178-1.154.39-2.422.448-1.378.062-1.784.076-5.262.076-3.478 0-3.884-.016-5.263-.08-1.27-.066-1.968-.278-2.423-.456a4.027 4.027 0 0 1-1.494-.974 3.948 3.948 0 0 1-.975-1.495c-.178-.455-.39-1.154-.455-2.422-.048-1.363-.066-1.784-.066-5.245 0-3.463.018-3.885.066-5.266.066-1.268.277-1.965.455-2.42.228-.618.52-1.04.975-1.497.454-.454.878-.746 1.494-.972.455-.18 1.139-.392 2.406-.457 1.382-.048 1.788-.064 5.264-.064l.048.03Zm0 3.984a6.676 6.676 0 1 0 0 13.352 6.676 6.676 0 0 0 0-13.35Zm0 11.01A4.332 4.332 0 0 1 8.667 13 4.332 4.332 0 0 1 13 8.667 4.332 4.332 0 0 1 17.333 13 4.332 4.332 0 0 1 13 17.333ZM21.5 6.06a1.56 1.56 0 0 1-3.12 0 1.56 1.56 0 0 1 3.12 0Z" fill="#000"/></svg>