<svg width="25" height="25" viewBox="0 0 25 25" fill="none" xmlns="http://www.w3.org/2000/svg">
<path d="M0 0V25H25V0H0ZM20.7687 5.92292L19.4281 7.20833C19.3713 7.25162 19.3273 7.30963 19.3011 7.3761C19.2748 7.44257 19.2672 7.51495 19.2792 7.58542V17.0302C19.2674 17.1005 19.2751 17.1727 19.3013 17.2389C19.3276 17.3052 19.3714 17.3631 19.4281 17.4062L20.7375 18.6917V18.974H14.1521V18.6927L15.5083 17.375C15.6417 17.2417 15.6417 17.2031 15.6417 17V9.36458L11.8708 18.9427H11.3604L6.96875 9.36458V15.7844C6.95068 15.9175 6.96315 16.053 7.0052 16.1806C7.04725 16.3082 7.11778 16.4245 7.21146 16.5208L8.97604 18.6604V18.9427H3.97396V18.6615L5.73958 16.5208C5.8325 16.4245 5.90146 16.3076 5.9409 16.1797C5.98035 16.0517 5.98917 15.9163 5.96667 15.7844V8.36146C5.97707 8.25977 5.96334 8.15707 5.92659 8.06169C5.88985 7.96631 5.83114 7.88093 5.75521 7.8125L4.18646 5.92292V5.64167H9.05521L12.8187 13.8948L16.1271 5.64062H20.7687V5.92292Z" fill="black"/>
</svg>
