<svg width="27" height="26" viewBox="0 0 27 26" fill="none" xmlns="http://www.w3.org/2000/svg">
<path d="M26.0067 13.0044C26.0067 5.82166 20.1851 0 13.0034 0C5.82166 0 0 5.82166 0 13.0044C0 19.4937 4.75529 24.8732 10.9714 25.8485V16.7627H7.67046V13.0034H10.9714V10.1391C10.9714 6.87935 12.9134 5.07932 15.8828 5.07932C17.3057 5.07932 18.7936 5.33291 18.7936 5.33291V8.53309H17.155C15.5403 8.53309 15.0364 9.53551 15.0364 10.5639V13.0044H18.643L18.0664 16.7638H15.0364V25.8496C21.2525 24.8743 26.0078 19.4948 26.0078 13.0044H26.0067Z" fill="black"/>
</svg>
