<svg xmlns="http://www.w3.org/2000/svg" fill="none" width="26" height="26" viewBox="0 0 26 26"><path d="M22.15 22.156H18.3v-6.033c0-1.438-.029-3.29-2.006-3.29-2.007 0-2.314 1.566-2.314 3.184v6.14h-3.85V9.75h3.699v1.691h.05c.513-.975 1.77-2.004 3.65-2.004 3.898 0 4.619 2.567 4.619 5.91v6.81ZM5.783 8.052a2.234 2.234 0 0 1-1.858-3.479 2.236 2.236 0 1 1 1.858 3.48Zm1.93 14.104h-3.86V9.75h3.86v12.406ZM24.077 0H1.92C.857 0 0 .839 0 1.873v22.254C0 25.163.857 26 1.918 26h22.155c1.06 0 1.926-.837 1.926-1.873V1.873C26 .84 25.133 0 24.074 0h.003Z" fill="#000"/></svg>