<svg xmlns="http://www.w3.org/2000/svg" fill="none" width="32" height="24" viewBox="0 0 32 24"><path d="M31.332 3.706a4.382 4.382 0 0 0-1.027-1.887A3.96 3.96 0 0 0 28.547.717C26.053 0 16.014 0 16.014 0S6-.014 3.482.717A3.96 3.96 0 0 0 1.724 1.82 4.384 4.384 0 0 0 .697 3.706 47.908 47.908 0 0 0 0 12.016a47.907 47.907 0 0 0 .697 8.277 4.373 4.373 0 0 0 1.027 1.886 3.96 3.96 0 0 0 1.758 1.102c2.49.72 12.532.72 12.532.72s10.012 0 12.533-.717a3.96 3.96 0 0 0 1.758-1.102 4.382 4.382 0 0 0 1.027-1.886 47.9 47.9 0 0 0 .667-8.278 47.905 47.905 0 0 0-.671-8.31ZM12.81 17.156V6.858l8.356 5.156-8.356 5.14Z" fill="#000"/></svg>