<svg xmlns="http://www.w3.org/2000/svg" fill="none" width="27" height="22" viewBox="0 0 27 22"><path d="M26.867 2.606a11.217 11.217 0 0 1-3.168.87A5.56 5.56 0 0 0 26.125.42a11.4 11.4 0 0 1-3.507 1.33 5.519 5.519 0 0 0-9.404 5.026C8.626 6.56 4.56 4.356 1.839 1.026a5.409 5.409 0 0 0-.75 2.777 5.52 5.52 0 0 0 2.454 4.594 5.5 5.5 0 0 1-2.5-.69v.068a5.522 5.522 0 0 0 4.427 5.414c-.81.216-1.658.25-2.482.095a5.538 5.538 0 0 0 5.165 3.833 11.068 11.068 0 0 1-6.844 2.36c-.435 0-.871-.025-1.31-.075a15.697 15.697 0 0 0 8.475 2.478c10.155 0 15.702-8.408 15.702-15.687 0-.234 0-.47-.017-.707a11.143 11.143 0 0 0 2.76-2.857l-.054-.023Z" fill="#000"/></svg>